<svg xmlns="http://www.w3.org/2000/svg" width="840" height="560" viewBox="0 0 840 560" fill="none">
  <defs>
    <linearGradient id="bg" x1="0" y1="0" x2="840" y2="560" gradientUnits="userSpaceOnUse">
      <stop stop-color="#ECEAF6"/>
      <stop offset="1" stop-color="#DAD7EA"/>
    </linearGradient>
    <linearGradient id="blazer" x1="320" y1="95" x2="520" y2="482" gradientUnits="userSpaceOnUse">
      <stop stop-color="#1D1F25"/>
      <stop offset="1" stop-color="#101217"/>
    </linearGradient>
  </defs>
  <rect width="840" height="560" rx="28" fill="url(#bg)"/>
  <circle cx="680" cy="132" r="88" fill="#C9C6DD"/>
  <circle cx="138" cy="430" r="90" fill="#C1BCD8"/>
  <path d="M336 96L278 176L317 236L358 196V472H482V196L523 236L562 176L504 96L458 120H382L336 96Z" fill="url(#blazer)"/>
  <path d="M382 120H458L420 214L382 120Z" fill="#2F333D"/>
  <path d="M458 120L420 214L450 472H482V196L523 236L562 176L504 96L458 120Z" fill="#171A21"/>
  <rect x="405" y="250" width="30" height="18" rx="4" fill="#A98D55"/>
  <rect x="405" y="292" width="30" height="18" rx="4" fill="#A98D55"/>
  <text x="44" y="86" fill="#3D3A55" font-size="36" font-family="Trebuchet MS, sans-serif" font-weight="700">Evening Blazer</text>
</svg>
